<mxfile host="app.diagrams.net" modified="2023-02-21T08:20:48.157Z" agent="5.0 (Windows NT 10.0; Win64; x64) AppleWebKit/537.36 (KHTML, like Gecko) Chrome/110.0.0.0 Safari/537.36" etag="gg-2qJr3Xtqo-xCxE6H4" version="20.8.21" type="github">
  <diagram name="페이지-1" id="KyzcM3CwXOdCmTSFE3pm">
    <mxGraphModel dx="1893" dy="934" grid="1" gridSize="10" guides="1" tooltips="1" connect="1" arrows="1" fold="1" page="1" pageScale="1" pageWidth="1169" pageHeight="827" math="0" shadow="0">
      <root>
        <mxCell id="0" />
        <mxCell id="1" style="locked=1;" parent="0" />
        <mxCell id="UqRdVdEij4UEKLvfqGT5-1" value="" style="ellipse;shape=cloud;whiteSpace=wrap;html=1;" vertex="1" parent="1">
          <mxGeometry x="50" y="40" width="510" height="350" as="geometry" />
        </mxCell>
        <mxCell id="UqRdVdEij4UEKLvfqGT5-3" value="packages" parent="0" />
        <mxCell id="UqRdVdEij4UEKLvfqGT5-49" value="" style="group" vertex="1" connectable="0" parent="UqRdVdEij4UEKLvfqGT5-3">
          <mxGeometry x="150" y="90" width="335" height="200" as="geometry" />
        </mxCell>
        <mxCell id="UqRdVdEij4UEKLvfqGT5-20" value="" style="group" vertex="1" connectable="0" parent="UqRdVdEij4UEKLvfqGT5-49">
          <mxGeometry width="85" height="200" as="geometry" />
        </mxCell>
        <mxCell id="UqRdVdEij4UEKLvfqGT5-4" value="" style="verticalLabelPosition=bottom;html=1;verticalAlign=top;align=center;strokeColor=none;fillColor=#00BEF2;shape=mxgraph.azure.cloud_service_package_file;" vertex="1" parent="UqRdVdEij4UEKLvfqGT5-20">
          <mxGeometry width="42.5" height="50" as="geometry" />
        </mxCell>
        <mxCell id="UqRdVdEij4UEKLvfqGT5-5" value="" style="verticalLabelPosition=bottom;html=1;verticalAlign=top;align=center;strokeColor=none;fillColor=#00BEF2;shape=mxgraph.azure.cloud_service_package_file;" vertex="1" parent="UqRdVdEij4UEKLvfqGT5-20">
          <mxGeometry y="50" width="42.5" height="50" as="geometry" />
        </mxCell>
        <mxCell id="UqRdVdEij4UEKLvfqGT5-6" value="" style="verticalLabelPosition=bottom;html=1;verticalAlign=top;align=center;strokeColor=none;fillColor=#00BEF2;shape=mxgraph.azure.cloud_service_package_file;" vertex="1" parent="UqRdVdEij4UEKLvfqGT5-20">
          <mxGeometry y="100" width="42.5" height="50" as="geometry" />
        </mxCell>
        <mxCell id="UqRdVdEij4UEKLvfqGT5-7" value="" style="verticalLabelPosition=bottom;html=1;verticalAlign=top;align=center;strokeColor=none;fillColor=#00BEF2;shape=mxgraph.azure.cloud_service_package_file;" vertex="1" parent="UqRdVdEij4UEKLvfqGT5-20">
          <mxGeometry y="150" width="42.5" height="50" as="geometry" />
        </mxCell>
        <mxCell id="UqRdVdEij4UEKLvfqGT5-8" value="" style="verticalLabelPosition=bottom;html=1;verticalAlign=top;align=center;strokeColor=none;fillColor=#00BEF2;shape=mxgraph.azure.cloud_service_package_file;" vertex="1" parent="UqRdVdEij4UEKLvfqGT5-20">
          <mxGeometry x="42.5" width="42.5" height="50" as="geometry" />
        </mxCell>
        <mxCell id="UqRdVdEij4UEKLvfqGT5-9" value="" style="verticalLabelPosition=bottom;html=1;verticalAlign=top;align=center;strokeColor=none;fillColor=#00BEF2;shape=mxgraph.azure.cloud_service_package_file;" vertex="1" parent="UqRdVdEij4UEKLvfqGT5-20">
          <mxGeometry x="42.5" y="50" width="42.5" height="50" as="geometry" />
        </mxCell>
        <mxCell id="UqRdVdEij4UEKLvfqGT5-10" value="" style="verticalLabelPosition=bottom;html=1;verticalAlign=top;align=center;strokeColor=none;fillColor=#00BEF2;shape=mxgraph.azure.cloud_service_package_file;" vertex="1" parent="UqRdVdEij4UEKLvfqGT5-20">
          <mxGeometry x="42.5" y="100" width="42.5" height="50" as="geometry" />
        </mxCell>
        <mxCell id="UqRdVdEij4UEKLvfqGT5-11" value="" style="verticalLabelPosition=bottom;html=1;verticalAlign=top;align=center;strokeColor=none;fillColor=#00BEF2;shape=mxgraph.azure.cloud_service_package_file;" vertex="1" parent="UqRdVdEij4UEKLvfqGT5-20">
          <mxGeometry x="42.5" y="150" width="42.5" height="50" as="geometry" />
        </mxCell>
        <mxCell id="UqRdVdEij4UEKLvfqGT5-21" value="" style="group" vertex="1" connectable="0" parent="UqRdVdEij4UEKLvfqGT5-49">
          <mxGeometry x="80" width="85" height="200" as="geometry" />
        </mxCell>
        <mxCell id="UqRdVdEij4UEKLvfqGT5-22" value="" style="verticalLabelPosition=bottom;html=1;verticalAlign=top;align=center;strokeColor=none;fillColor=#00BEF2;shape=mxgraph.azure.cloud_service_package_file;" vertex="1" parent="UqRdVdEij4UEKLvfqGT5-21">
          <mxGeometry width="42.5" height="50" as="geometry" />
        </mxCell>
        <mxCell id="UqRdVdEij4UEKLvfqGT5-23" value="" style="verticalLabelPosition=bottom;html=1;verticalAlign=top;align=center;strokeColor=none;fillColor=#00BEF2;shape=mxgraph.azure.cloud_service_package_file;" vertex="1" parent="UqRdVdEij4UEKLvfqGT5-21">
          <mxGeometry y="50" width="42.5" height="50" as="geometry" />
        </mxCell>
        <mxCell id="UqRdVdEij4UEKLvfqGT5-24" value="" style="verticalLabelPosition=bottom;html=1;verticalAlign=top;align=center;strokeColor=none;fillColor=#00BEF2;shape=mxgraph.azure.cloud_service_package_file;" vertex="1" parent="UqRdVdEij4UEKLvfqGT5-21">
          <mxGeometry y="100" width="42.5" height="50" as="geometry" />
        </mxCell>
        <mxCell id="UqRdVdEij4UEKLvfqGT5-25" value="" style="verticalLabelPosition=bottom;html=1;verticalAlign=top;align=center;strokeColor=none;fillColor=#00BEF2;shape=mxgraph.azure.cloud_service_package_file;" vertex="1" parent="UqRdVdEij4UEKLvfqGT5-21">
          <mxGeometry y="150" width="42.5" height="50" as="geometry" />
        </mxCell>
        <mxCell id="UqRdVdEij4UEKLvfqGT5-26" value="" style="verticalLabelPosition=bottom;html=1;verticalAlign=top;align=center;strokeColor=none;fillColor=#00BEF2;shape=mxgraph.azure.cloud_service_package_file;" vertex="1" parent="UqRdVdEij4UEKLvfqGT5-21">
          <mxGeometry x="42.5" width="42.5" height="50" as="geometry" />
        </mxCell>
        <mxCell id="UqRdVdEij4UEKLvfqGT5-27" value="" style="verticalLabelPosition=bottom;html=1;verticalAlign=top;align=center;strokeColor=none;fillColor=#00BEF2;shape=mxgraph.azure.cloud_service_package_file;" vertex="1" parent="UqRdVdEij4UEKLvfqGT5-21">
          <mxGeometry x="42.5" y="50" width="42.5" height="50" as="geometry" />
        </mxCell>
        <mxCell id="UqRdVdEij4UEKLvfqGT5-28" value="" style="verticalLabelPosition=bottom;html=1;verticalAlign=top;align=center;strokeColor=none;fillColor=#00BEF2;shape=mxgraph.azure.cloud_service_package_file;" vertex="1" parent="UqRdVdEij4UEKLvfqGT5-21">
          <mxGeometry x="42.5" y="100" width="42.5" height="50" as="geometry" />
        </mxCell>
        <mxCell id="UqRdVdEij4UEKLvfqGT5-29" value="" style="verticalLabelPosition=bottom;html=1;verticalAlign=top;align=center;strokeColor=none;fillColor=#00BEF2;shape=mxgraph.azure.cloud_service_package_file;" vertex="1" parent="UqRdVdEij4UEKLvfqGT5-21">
          <mxGeometry x="42.5" y="150" width="42.5" height="50" as="geometry" />
        </mxCell>
        <mxCell id="UqRdVdEij4UEKLvfqGT5-30" value="" style="group" vertex="1" connectable="0" parent="UqRdVdEij4UEKLvfqGT5-49">
          <mxGeometry x="250" width="85" height="200" as="geometry" />
        </mxCell>
        <mxCell id="UqRdVdEij4UEKLvfqGT5-31" value="" style="verticalLabelPosition=bottom;html=1;verticalAlign=top;align=center;strokeColor=none;fillColor=#00BEF2;shape=mxgraph.azure.cloud_service_package_file;" vertex="1" parent="UqRdVdEij4UEKLvfqGT5-30">
          <mxGeometry width="42.5" height="50" as="geometry" />
        </mxCell>
        <mxCell id="UqRdVdEij4UEKLvfqGT5-32" value="" style="verticalLabelPosition=bottom;html=1;verticalAlign=top;align=center;strokeColor=none;fillColor=#00BEF2;shape=mxgraph.azure.cloud_service_package_file;" vertex="1" parent="UqRdVdEij4UEKLvfqGT5-30">
          <mxGeometry y="50" width="42.5" height="50" as="geometry" />
        </mxCell>
        <mxCell id="UqRdVdEij4UEKLvfqGT5-33" value="" style="verticalLabelPosition=bottom;html=1;verticalAlign=top;align=center;strokeColor=none;fillColor=#00BEF2;shape=mxgraph.azure.cloud_service_package_file;" vertex="1" parent="UqRdVdEij4UEKLvfqGT5-30">
          <mxGeometry y="100" width="42.5" height="50" as="geometry" />
        </mxCell>
        <mxCell id="UqRdVdEij4UEKLvfqGT5-34" value="" style="verticalLabelPosition=bottom;html=1;verticalAlign=top;align=center;strokeColor=none;fillColor=#00BEF2;shape=mxgraph.azure.cloud_service_package_file;" vertex="1" parent="UqRdVdEij4UEKLvfqGT5-30">
          <mxGeometry y="150" width="42.5" height="50" as="geometry" />
        </mxCell>
        <mxCell id="UqRdVdEij4UEKLvfqGT5-35" value="" style="verticalLabelPosition=bottom;html=1;verticalAlign=top;align=center;strokeColor=none;fillColor=#00BEF2;shape=mxgraph.azure.cloud_service_package_file;" vertex="1" parent="UqRdVdEij4UEKLvfqGT5-30">
          <mxGeometry x="42.5" width="42.5" height="50" as="geometry" />
        </mxCell>
        <mxCell id="UqRdVdEij4UEKLvfqGT5-36" value="" style="verticalLabelPosition=bottom;html=1;verticalAlign=top;align=center;strokeColor=none;fillColor=#00BEF2;shape=mxgraph.azure.cloud_service_package_file;" vertex="1" parent="UqRdVdEij4UEKLvfqGT5-30">
          <mxGeometry x="42.5" y="50" width="42.5" height="50" as="geometry" />
        </mxCell>
        <mxCell id="UqRdVdEij4UEKLvfqGT5-37" value="" style="verticalLabelPosition=bottom;html=1;verticalAlign=top;align=center;strokeColor=none;fillColor=#00BEF2;shape=mxgraph.azure.cloud_service_package_file;" vertex="1" parent="UqRdVdEij4UEKLvfqGT5-30">
          <mxGeometry x="42.5" y="100" width="42.5" height="50" as="geometry" />
        </mxCell>
        <mxCell id="UqRdVdEij4UEKLvfqGT5-38" value="" style="verticalLabelPosition=bottom;html=1;verticalAlign=top;align=center;strokeColor=none;fillColor=#00BEF2;shape=mxgraph.azure.cloud_service_package_file;" vertex="1" parent="UqRdVdEij4UEKLvfqGT5-30">
          <mxGeometry x="42.5" y="150" width="42.5" height="50" as="geometry" />
        </mxCell>
        <mxCell id="UqRdVdEij4UEKLvfqGT5-40" value="" style="group" vertex="1" connectable="0" parent="UqRdVdEij4UEKLvfqGT5-49">
          <mxGeometry x="165" width="145" height="200" as="geometry" />
        </mxCell>
        <mxCell id="UqRdVdEij4UEKLvfqGT5-41" value="" style="verticalLabelPosition=bottom;html=1;verticalAlign=top;align=center;strokeColor=none;fillColor=#00BEF2;shape=mxgraph.azure.cloud_service_package_file;" vertex="1" parent="UqRdVdEij4UEKLvfqGT5-40">
          <mxGeometry width="42.5" height="50" as="geometry" />
        </mxCell>
        <mxCell id="UqRdVdEij4UEKLvfqGT5-42" value="" style="verticalLabelPosition=bottom;html=1;verticalAlign=top;align=center;strokeColor=none;fillColor=#00BEF2;shape=mxgraph.azure.cloud_service_package_file;" vertex="1" parent="UqRdVdEij4UEKLvfqGT5-40">
          <mxGeometry y="50" width="42.5" height="50" as="geometry" />
        </mxCell>
        <mxCell id="UqRdVdEij4UEKLvfqGT5-43" value="" style="verticalLabelPosition=bottom;html=1;verticalAlign=top;align=center;strokeColor=none;fillColor=#00BEF2;shape=mxgraph.azure.cloud_service_package_file;" vertex="1" parent="UqRdVdEij4UEKLvfqGT5-40">
          <mxGeometry y="100" width="42.5" height="50" as="geometry" />
        </mxCell>
        <mxCell id="UqRdVdEij4UEKLvfqGT5-44" value="" style="verticalLabelPosition=bottom;html=1;verticalAlign=top;align=center;strokeColor=none;fillColor=#00BEF2;shape=mxgraph.azure.cloud_service_package_file;" vertex="1" parent="UqRdVdEij4UEKLvfqGT5-40">
          <mxGeometry y="150" width="42.5" height="50" as="geometry" />
        </mxCell>
        <mxCell id="UqRdVdEij4UEKLvfqGT5-45" value="" style="verticalLabelPosition=bottom;html=1;verticalAlign=top;align=center;strokeColor=none;fillColor=#00BEF2;shape=mxgraph.azure.cloud_service_package_file;" vertex="1" parent="UqRdVdEij4UEKLvfqGT5-40">
          <mxGeometry x="42.5" width="42.5" height="50" as="geometry" />
        </mxCell>
        <mxCell id="UqRdVdEij4UEKLvfqGT5-46" value="" style="verticalLabelPosition=bottom;html=1;verticalAlign=top;align=center;strokeColor=none;fillColor=#00BEF2;shape=mxgraph.azure.cloud_service_package_file;" vertex="1" parent="UqRdVdEij4UEKLvfqGT5-40">
          <mxGeometry x="42.5" y="50" width="42.5" height="50" as="geometry" />
        </mxCell>
        <mxCell id="UqRdVdEij4UEKLvfqGT5-47" value="" style="verticalLabelPosition=bottom;html=1;verticalAlign=top;align=center;strokeColor=none;fillColor=#00BEF2;shape=mxgraph.azure.cloud_service_package_file;" vertex="1" parent="UqRdVdEij4UEKLvfqGT5-40">
          <mxGeometry x="42.5" y="100" width="42.5" height="50" as="geometry" />
        </mxCell>
        <mxCell id="UqRdVdEij4UEKLvfqGT5-48" value="" style="verticalLabelPosition=bottom;html=1;verticalAlign=top;align=center;strokeColor=none;fillColor=#00BEF2;shape=mxgraph.azure.cloud_service_package_file;" vertex="1" parent="UqRdVdEij4UEKLvfqGT5-40">
          <mxGeometry x="42.5" y="150" width="42.5" height="50" as="geometry" />
        </mxCell>
        <mxCell id="UqRdVdEij4UEKLvfqGT5-50" value="&lt;font style=&quot;font-size: 24px;&quot;&gt;Packages (program)&lt;/font&gt;" style="text;html=1;align=center;verticalAlign=middle;whiteSpace=wrap;rounded=0;fillColor=default;strokeColor=default;" vertex="1" parent="UqRdVdEij4UEKLvfqGT5-40">
          <mxGeometry x="-125" y="120" width="270" height="50" as="geometry" />
        </mxCell>
        <mxCell id="UqRdVdEij4UEKLvfqGT5-59" value="" style="shape=flexArrow;endArrow=classic;html=1;rounded=0;fontSize=24;entryX=0.885;entryY=0.793;entryDx=0;entryDy=0;entryPerimeter=0;fillColor=default;" edge="1" parent="UqRdVdEij4UEKLvfqGT5-3" target="UqRdVdEij4UEKLvfqGT5-1">
          <mxGeometry width="50" height="50" relative="1" as="geometry">
            <mxPoint x="740" y="440" as="sourcePoint" />
            <mxPoint x="680" y="370" as="targetPoint" />
          </mxGeometry>
        </mxCell>
        <mxCell id="UqRdVdEij4UEKLvfqGT5-66" value="" style="verticalLabelPosition=bottom;html=1;verticalAlign=top;align=center;strokeColor=none;fillColor=#00BEF2;shape=mxgraph.azure.computer;pointerEvents=1;fontSize=24;" vertex="1" parent="UqRdVdEij4UEKLvfqGT5-3">
          <mxGeometry x="860" y="490" width="233.33" height="210" as="geometry" />
        </mxCell>
        <object label="Repo List" list1="name" list2="baseurl" list3="enabled" list4="gpgcheck" id="UqRdVdEij4UEKLvfqGT5-62">
          <mxCell style="swimlane;fontStyle=0;childLayout=stackLayout;horizontal=1;startSize=30;horizontalStack=0;resizeParent=1;resizeParentMax=0;resizeLast=0;collapsible=1;marginBottom=0;whiteSpace=wrap;html=1;strokeColor=default;fontSize=24;fillColor=default;swimlaneLine=1;glass=0;" vertex="1" parent="UqRdVdEij4UEKLvfqGT5-3">
            <mxGeometry x="750" y="360" width="140" height="150" as="geometry" />
          </mxCell>
        </object>
        <mxCell id="UqRdVdEij4UEKLvfqGT5-63" value="name" style="text;strokeColor=none;fillColor=default;align=left;verticalAlign=middle;spacingLeft=4;spacingRight=4;overflow=hidden;points=[[0,0.5],[1,0.5]];portConstraint=eastwest;rotatable=0;whiteSpace=wrap;html=1;fontSize=24;" vertex="1" parent="UqRdVdEij4UEKLvfqGT5-62">
          <mxGeometry y="30" width="140" height="30" as="geometry" />
        </mxCell>
        <mxCell id="UqRdVdEij4UEKLvfqGT5-64" value="baseurl" style="text;strokeColor=none;fillColor=default;align=left;verticalAlign=middle;spacingLeft=4;spacingRight=4;overflow=hidden;points=[[0,0.5],[1,0.5]];portConstraint=eastwest;rotatable=0;whiteSpace=wrap;html=1;fontSize=24;" vertex="1" parent="UqRdVdEij4UEKLvfqGT5-62">
          <mxGeometry y="60" width="140" height="30" as="geometry" />
        </mxCell>
        <mxCell id="UqRdVdEij4UEKLvfqGT5-65" value="enabled" style="text;strokeColor=none;fillColor=default;align=left;verticalAlign=middle;spacingLeft=4;spacingRight=4;overflow=hidden;points=[[0,0.5],[1,0.5]];portConstraint=eastwest;rotatable=0;whiteSpace=wrap;html=1;fontSize=24;" vertex="1" parent="UqRdVdEij4UEKLvfqGT5-62">
          <mxGeometry y="90" width="140" height="30" as="geometry" />
        </mxCell>
        <mxCell id="UqRdVdEij4UEKLvfqGT5-71" value="gpgcheck" style="text;strokeColor=none;fillColor=default;align=left;verticalAlign=middle;spacingLeft=4;spacingRight=4;overflow=hidden;points=[[0,0.5],[1,0.5]];portConstraint=eastwest;rotatable=0;whiteSpace=wrap;html=1;fontSize=24;" vertex="1" parent="UqRdVdEij4UEKLvfqGT5-62">
          <mxGeometry y="120" width="140" height="30" as="geometry" />
        </mxCell>
        <mxCell id="UqRdVdEij4UEKLvfqGT5-72" value="" style="shape=flexArrow;endArrow=classic;html=1;rounded=0;fontSize=24;fillColor=default;" edge="1" parent="UqRdVdEij4UEKLvfqGT5-3">
          <mxGeometry width="50" height="50" relative="1" as="geometry">
            <mxPoint x="420" y="400" as="sourcePoint" />
            <mxPoint x="820" y="600" as="targetPoint" />
          </mxGeometry>
        </mxCell>
        <mxCell id="UqRdVdEij4UEKLvfqGT5-73" value="Yum / Dnf" style="rounded=0;whiteSpace=wrap;html=1;glass=0;strokeColor=default;fontSize=24;fillColor=default;" vertex="1" parent="UqRdVdEij4UEKLvfqGT5-3">
          <mxGeometry x="440" y="520" width="230" height="50" as="geometry" />
        </mxCell>
        <mxCell id="UqRdVdEij4UEKLvfqGT5-74" value="" style="verticalLabelPosition=bottom;html=1;verticalAlign=top;align=center;strokeColor=none;fillColor=#00BEF2;shape=mxgraph.azure.cloud_service_package_file;glass=0;fontSize=24;" vertex="1" parent="UqRdVdEij4UEKLvfqGT5-3">
          <mxGeometry x="460" y="480" width="42.5" height="50" as="geometry" />
        </mxCell>
        <mxCell id="UqRdVdEij4UEKLvfqGT5-75" value="" style="verticalLabelPosition=bottom;html=1;verticalAlign=top;align=center;strokeColor=none;fillColor=#00BEF2;shape=mxgraph.azure.cloud_service_package_file;glass=0;fontSize=24;" vertex="1" parent="UqRdVdEij4UEKLvfqGT5-3">
          <mxGeometry x="510" y="480" width="42.5" height="50" as="geometry" />
        </mxCell>
        <mxCell id="UqRdVdEij4UEKLvfqGT5-76" value="Linux Host" style="rounded=0;whiteSpace=wrap;html=1;glass=0;strokeColor=default;fontSize=24;fillColor=default;" vertex="1" parent="UqRdVdEij4UEKLvfqGT5-3">
          <mxGeometry x="840" y="710" width="280" height="60" as="geometry" />
        </mxCell>
      </root>
    </mxGraphModel>
  </diagram>
</mxfile>
